<svg width="42" height="42" viewBox="0 0 42 42" fill="none" xmlns="http://www.w3.org/2000/svg">
<path d="M21 0C32.598 0 42 9.40202 42 21C42 32.598 32.598 42 21 42C9.40202 42 0 32.598 0 21C0 9.40202 9.40202 0 21 0ZM20.707 14.793C20.3165 14.4024 19.6835 14.4024 19.293 14.793L13.293 20.793C12.9024 21.1835 12.9024 21.8165 13.293 22.207L19.293 28.207C19.6835 28.5976 20.3165 28.5976 20.707 28.207C21.0976 27.8165 21.0976 27.1835 20.707 26.793L16.4141 22.5H28C28.5523 22.5 29 22.0523 29 21.5C29 20.9477 28.5523 20.5 28 20.5H16.4141L20.707 16.207C21.0976 15.8165 21.0976 15.1835 20.707 14.793Z" fill="#1C8EFF"/>
</svg>
