<svg width="18" height="18" viewBox="0 0 18 18" fill="none" xmlns="http://www.w3.org/2000/svg">
<path d="M8.9375 0C4.00941 0 0 4.00941 0 8.9375C0 13.8656 4.00941 17.875 8.9375 17.875C13.8656 17.875 17.875 13.8656 17.875 8.9375C17.875 4.00941 13.8656 0 8.9375 0ZM13.5889 5.94215L7.81387 12.8171C7.75052 12.8926 7.67169 12.9536 7.58273 12.9959C7.49377 13.0382 7.39675 13.0609 7.29824 13.0625H7.28664C7.19028 13.0625 7.095 13.0422 7.00698 13.0029C6.91897 12.9637 6.84019 12.9064 6.77574 12.8348L4.30074 10.0848C4.23789 10.0181 4.18899 9.93954 4.15693 9.8537C4.12487 9.76787 4.11029 9.67649 4.11405 9.58494C4.1178 9.49339 4.13982 9.40352 4.17881 9.3206C4.2178 9.23768 4.27297 9.16339 4.34108 9.1021C4.40919 9.04081 4.48886 8.99375 4.57541 8.96369C4.66197 8.93363 4.75366 8.92118 4.8451 8.92706C4.93654 8.93294 5.02588 8.95704 5.10787 8.99794C5.18986 9.03884 5.26284 9.09572 5.32254 9.16523L7.26859 11.3274L12.5361 5.05785C12.6543 4.92125 12.8215 4.83662 13.0015 4.82228C13.1815 4.80793 13.36 4.86501 13.4983 4.98118C13.6366 5.09735 13.7236 5.26328 13.7406 5.4431C13.7575 5.62292 13.703 5.80219 13.5889 5.94215Z" fill="#1C8EFF"/>
</svg>
