<svg width="22" height="22" viewBox="0 0 22 22" fill="none" xmlns="http://www.w3.org/2000/svg">
<circle cx="11" cy="11" r="11" fill="#1C8EFF"/>
<path d="M11 8.66634C11.1547 8.66634 11.3031 8.7278 11.4125 8.8372C11.5219 8.94659 11.5833 9.09496 11.5833 9.24967C11.5833 9.40438 11.5219 9.55276 11.4125 9.66215C11.3031 9.77155 11.1547 9.83301 11 9.83301C10.8453 9.83301 10.6969 9.77155 10.5875 9.66215C10.4781 9.55276 10.4167 9.40438 10.4167 9.24967C10.4167 9.09496 10.4781 8.94659 10.5875 8.8372C10.6969 8.7278 10.8453 8.66634 11 8.66634ZM16.25 10.4163C16.25 13.6538 14.01 16.6813 11 17.4163C7.99 16.6813 5.75 13.6538 5.75 10.4163V6.91634L11 4.58301L16.25 6.91634V10.4163ZM11 7.49967C10.5359 7.49967 10.0908 7.68405 9.76256 8.01224C9.43437 8.34043 9.25 8.78555 9.25 9.24967C9.25 10.0138 9.73417 10.6613 10.4167 10.9005V14.4997H11.5833V13.333H12.75V12.1663H11.5833V10.9005C12.2658 10.6613 12.75 10.0138 12.75 9.24967C12.75 8.78555 12.5656 8.34043 12.2374 8.01224C11.9092 7.68405 11.4641 7.49967 11 7.49967Z" fill="white"/>
</svg>
