<svg width="22" height="22" viewBox="0 0 22 22" fill="none" xmlns="http://www.w3.org/2000/svg">
<circle cx="11" cy="11" r="11" fill="#1C8EFF"/>
<path d="M10.2999 11.953L9.11059 10.7637C9.04525 10.6988 8.96859 10.6643 8.88059 10.6603C8.79259 10.6563 8.71192 10.6908 8.63859 10.7637C8.56525 10.8366 8.52836 10.9159 8.52792 11.0017C8.52747 11.0874 8.56436 11.1668 8.63859 11.2397L9.92325 12.5277C10.0308 12.6357 10.1564 12.6897 10.2999 12.6897C10.4435 12.6897 10.5693 12.6357 10.6773 12.5277L13.3693 9.83567C13.4341 9.77078 13.4688 9.69367 13.4733 9.60433C13.4777 9.515 13.443 9.43367 13.3693 9.36033C13.2955 9.287 13.2161 9.25011 13.1313 9.24967C13.0464 9.24922 12.9673 9.28611 12.8939 9.36033L10.2999 11.953ZM10.9999 16.895C10.9395 16.895 10.8759 16.8894 10.8093 16.8783C10.7426 16.8672 10.6801 16.8506 10.6219 16.8283C9.30947 16.3279 8.26659 15.4797 7.49325 14.2837C6.71992 13.0877 6.33325 11.793 6.33325 10.3997V7.54433C6.33325 7.31767 6.39881 7.11256 6.52992 6.929C6.66103 6.74544 6.82881 6.61211 7.03325 6.529L10.6233 5.19567C10.753 5.14856 10.8786 5.125 10.9999 5.125C11.1213 5.125 11.247 5.14856 11.3773 5.19567L14.9666 6.529C15.171 6.61211 15.3388 6.74544 15.4699 6.929C15.601 7.11256 15.6666 7.31767 15.6666 7.54433V10.3997C15.6666 11.793 15.2799 13.0877 14.5066 14.2837C13.7333 15.4797 12.6904 16.3277 11.3779 16.8277C11.3201 16.8499 11.2579 16.8666 11.1913 16.8777C11.1246 16.8888 11.0608 16.8943 10.9999 16.8943" fill="white"/>
</svg>
