<svg width="10" height="8" viewBox="0 0 10 8" fill="none" xmlns="http://www.w3.org/2000/svg">
<path d="M0.897778 7.77778C0.641852 7.77778 0.428333 7.69222 0.257222 7.52111C0.0861112 7.35 0.00037037 7.1363 0 6.88V0.897778C0 0.641852 0.0857408 0.428333 0.257222 0.257222C0.428704 0.086111 0.642037 0.00037037 0.897222 0H9.10278C9.35833 0 9.57167 0.0857406 9.74278 0.257222C9.91389 0.428704 9.99963 0.642222 10 0.897778V6.88056C10 7.13611 9.91426 7.34963 9.74278 7.52111C9.5713 7.69259 9.35796 7.77815 9.10278 7.77778H0.897778ZM5 3.86667C5.0463 3.86667 5.08963 3.85963 5.13 3.84556C5.17 3.83148 5.20963 3.81426 5.24889 3.79389L9.265 1.16444C9.31759 1.13259 9.35185 1.08907 9.36778 1.03389C9.3837 0.978704 9.38074 0.923704 9.35889 0.868889C9.34482 0.797407 9.29815 0.745555 9.21889 0.713333C9.14 0.681481 9.06352 0.687963 8.98944 0.732778L5 3.33333L1.01111 0.733333C0.937037 0.688148 0.862222 0.678519 0.786667 0.704444C0.711111 0.73037 0.662593 0.781482 0.641111 0.857778C0.61963 0.914815 0.616852 0.972778 0.632778 1.03167C0.648704 1.09056 0.682778 1.135 0.735 1.165L4.75111 3.79389C4.79037 3.81426 4.83 3.83148 4.87 3.84556C4.91037 3.85926 4.9537 3.86611 5 3.86611" fill="#FBFBFB"/>
</svg>
