<svg width="367" height="29" viewBox="0 0 367 29" fill="none" xmlns="http://www.w3.org/2000/svg">
<path d="M0.000104383 24.24V1.91999H11.7001L18.5401 14.46L25.5001 1.91999H36.7201V24.24H28.2901V10.32L20.4601 24.24H16.1101L8.3101 10.32V24.24H0.000104383ZM67.8137 1.91999L56.4137 19.17C53.8637 23.01 52.8437 24.24 47.8937 24.24H43.4237V18.27H47.3537C47.9537 18.27 48.1337 18.09 48.1337 17.76V17.73C48.1337 17.46 48.0137 17.13 47.7437 16.8L36.7637 1.91999H46.6337L53.2037 11.61L59.1437 1.91999H67.8137ZM67.9386 24.24V1.91999H97.8786V24.24H89.3886V7.85999H76.4586V24.24H67.9386ZM117.517 24.24V8.00999H107.887V1.91999H135.667V8.00999H126.037V24.24H117.517ZM168.688 12.57V13.44C168.688 17.67 166.618 24.66 152.908 24.66H151.768C138.268 24.66 136.198 18.6 136.198 15.78V15.33H144.988C145.138 16.05 146.008 18.84 152.458 18.84C156.868 18.84 158.818 17.31 159.598 15.51H148.108V10.26H159.598C158.788 8.57999 156.898 7.28999 152.398 7.28999C146.158 7.28999 145.258 9.71999 145.018 10.56H136.228V10.23C136.228 7.46999 138.178 1.49999 151.768 1.49999H152.908C166.858 1.49999 168.688 8.30999 168.688 12.57ZM186.331 24.66H185.161C171.451 24.66 169.381 17.67 169.381 13.44V12.57C169.381 8.30999 171.241 1.49999 185.161 1.49999H186.331C199.891 1.49999 201.871 7.64999 201.871 10.53V10.92H193.021C192.841 10.32 192.151 7.49999 185.671 7.49999C179.521 7.49999 178.201 10.23 178.201 12.72V13.08C178.201 15.48 179.701 18.63 185.701 18.63C192.271 18.63 192.931 15.48 193.051 14.97H201.871V15.45C201.871 18.36 199.771 24.66 186.331 24.66ZM211.015 14.01C211.015 7.76999 213.955 3.11999 217.165 -1.06096e-05H221.245C218.965 3.62999 217.315 8.39999 217.315 14.01C217.315 19.62 218.995 24.48 221.245 28.17H217.165C213.895 24.96 211.015 20.37 211.015 14.01ZM240.13 15.06L236.38 7.37999L232.72 15.06H240.13ZM244.6 24.24L242.86 20.64H230.11L228.4 24.24H219.76L230.8 1.91999H242.26L253.93 24.24H244.6ZM268.438 24.24V13.02H262.858C262.768 17.7 262.618 19.74 261.868 21.3C260.998 23.22 259.228 24.24 255.958 24.24H252.898V19.11H253.258C254.188 19.11 254.788 18.72 255.058 17.67C255.358 16.59 255.568 15.3 255.568 8.09999H276.568V24.24H268.438ZM277.432 28.05V19.32H279.802C280.672 17.58 281.092 14.94 281.182 8.09999H303.232V19.32H306.412V28.05H298.942V24.24H284.902V28.05H277.432ZM287.422 19.32H295.192V12.87H288.352C288.262 15.66 287.992 17.73 287.422 19.32ZM321.639 17.31V16.62L316.239 17.58C314.829 17.82 314.259 18.15 314.259 18.96V18.99C314.259 19.74 314.799 20.64 316.809 20.64C319.809 20.64 321.639 18.99 321.639 17.31ZM321.789 22.08C321.009 22.86 318.939 24.54 314.229 24.54H313.899C308.499 24.54 306.429 21.99 306.429 19.35V18.99C306.429 16.29 308.169 14.7 312.969 14.31L320.739 13.62C321.429 13.53 321.639 13.29 321.639 12.84C321.639 12.24 321.309 11.61 318.129 11.61H318.009C314.559 11.61 314.469 12.75 314.379 13.26H306.819V13.08C306.819 10.92 307.479 7.67999 317.169 7.67999H318.849C328.929 7.67999 329.619 10.68 329.619 12.87V18.84C329.619 19.29 329.739 19.53 330.309 19.53H331.179V24.24H324.399C322.989 24.24 322.029 23.49 321.789 22.08ZM339.874 24.24H331.714V8.09999H339.874V13.74H347.824V8.09999H355.984V24.24H347.824V18.69H339.874V24.24ZM360.358 28.17H356.308C358.498 24.45 360.208 19.62 360.208 14.01C360.208 8.39999 358.558 3.62999 356.308 -1.06096e-05H360.358C363.568 3.11999 366.508 7.76999 366.508 14.01C366.508 20.37 363.658 24.96 360.358 28.17Z" fill="#1E1E1E"/>
</svg>
