<svg width="10" height="10" viewBox="0 0 10 10" fill="none" xmlns="http://www.w3.org/2000/svg">
<path fill-rule="evenodd" clip-rule="evenodd" d="M1.17842 0.318856C1.28778 0.209662 1.4191 0.124955 1.56367 0.0703502C1.70824 0.015745 1.86277 -0.00751187 2.01701 0.00212076C2.17125 0.0117534 2.32168 0.0540556 2.45833 0.126224C2.59499 0.198392 2.71475 0.298779 2.80967 0.420731L3.93154 1.86198C4.13717 2.12636 4.20967 2.47073 4.12842 2.79573L3.78654 4.16448C3.76899 4.23538 3.77001 4.30961 3.7895 4.38C3.80898 4.45039 3.84628 4.51458 3.89779 4.56636L5.43342 6.10198C5.48526 6.1536 5.54955 6.19096 5.62006 6.21045C5.69058 6.22994 5.76493 6.2309 5.83592 6.21323L7.20405 5.87136C7.36445 5.83149 7.5318 5.82849 7.69352 5.86259C7.85525 5.89669 8.00714 5.967 8.1378 6.06823L9.57905 7.18948C10.0972 7.59261 10.1447 8.35823 9.68092 8.82136L9.03467 9.46761C8.57217 9.93011 7.88092 10.1332 7.23655 9.90636C5.58697 9.32672 4.08938 8.38245 2.85529 7.14386C1.61678 5.90995 0.672514 4.41259 0.0927943 2.76323C-0.133456 2.11948 0.0696693 1.42761 0.532169 0.965106L1.17842 0.318856Z" fill="white"/>
</svg>
