<svg width="22" height="22" viewBox="0 0 22 22" fill="none" xmlns="http://www.w3.org/2000/svg">
<circle cx="11" cy="11" r="11" fill="#1C8EFF"/>
<path d="M5.75008 15.0837H6.33341V7.71036C6.33343 7.52669 6.39125 7.34768 6.49866 7.1987C6.60608 7.04972 6.75766 6.93832 6.93191 6.88028L11.5986 5.32511C11.7301 5.2813 11.8701 5.26937 12.0072 5.2903C12.1442 5.31123 12.2743 5.36441 12.3868 5.44547C12.4992 5.52654 12.5908 5.63315 12.654 5.75655C12.7171 5.87994 12.7501 6.01657 12.7501 6.15519V15.0837H13.3334V9.82786C13.3334 9.78472 13.343 9.74213 13.3615 9.70315C13.38 9.66417 13.4069 9.62977 13.4402 9.60243C13.4736 9.57509 13.5126 9.55549 13.5545 9.54505C13.5963 9.5346 13.6399 9.53357 13.6822 9.54203L14.9632 9.79869C15.1615 9.83832 15.34 9.94541 15.4682 10.1017C15.5965 10.2581 15.6666 10.454 15.6667 10.6562V15.0837H16.2501C16.4048 15.0837 16.5532 15.1451 16.6626 15.2545C16.772 15.3639 16.8334 15.5123 16.8334 15.667C16.8334 15.8217 16.772 15.9701 16.6626 16.0795C16.5532 16.1889 16.4048 16.2504 16.2501 16.2504H5.75008C5.59537 16.2504 5.447 16.1889 5.3376 16.0795C5.22821 15.9701 5.16675 15.8217 5.16675 15.667C5.16675 15.5123 5.22821 15.3639 5.3376 15.2545C5.447 15.1451 5.59537 15.0837 5.75008 15.0837Z" fill="white"/>
</svg>
