<svg width="366" height="33" viewBox="0 0 366 33" fill="none" xmlns="http://www.w3.org/2000/svg">
<path d="M7.91998 18.6119C9.38398 20.1239 11.148 20.8799 13.212 20.8799C15.276 20.8799 17.028 20.1239 18.468 18.6119C19.908 17.0999 20.628 15.2999 20.628 13.2119C20.628 11.1239 19.908 9.32394 18.468 7.81194C17.028 6.29994 15.276 5.54394 13.212 5.54394C11.148 5.54394 9.38398 6.29994 7.91998 7.81194C6.47998 9.32394 5.75998 11.1239 5.75998 13.2119C5.75998 15.2999 6.47998 17.0999 7.91998 18.6119ZM22.536 22.5359C19.968 25.1279 16.86 26.4239 13.212 26.4239C9.56398 26.4239 6.44398 25.1399 3.85198 22.5719C1.28398 19.9799 -2.5019e-05 16.8599 -2.5019e-05 13.2119C-2.5019e-05 9.56394 1.28398 6.45594 3.85198 3.88794C6.44398 1.29594 9.56398 -5.88894e-05 13.212 -5.88894e-05C16.86 -5.88894e-05 19.968 1.29594 22.536 3.88794C25.128 6.47994 26.424 9.58794 26.424 13.2119C26.424 16.8359 25.128 19.9439 22.536 22.5359ZM36.1336 18.6119C37.5976 20.1239 39.3616 20.8799 41.4256 20.8799C43.4896 20.8799 45.2416 20.1239 46.6816 18.6119C48.1216 17.0999 48.8416 15.2999 48.8416 13.2119C48.8416 11.1239 48.1216 9.32394 46.6816 7.81194C45.2416 6.29994 43.4896 5.54394 41.4256 5.54394C39.3616 5.54394 37.5976 6.29994 36.1336 7.81194C34.6936 9.32394 33.9736 11.1239 33.9736 13.2119C33.9736 15.2999 34.6936 17.0999 36.1336 18.6119ZM50.7496 22.5359C48.1816 25.1279 45.0736 26.4239 41.4256 26.4239C37.7776 26.4239 34.6576 25.1399 32.0656 22.5719C29.4976 19.9799 28.2136 16.8599 28.2136 13.2119C28.2136 9.56394 29.4976 6.45594 32.0656 3.88794C34.6576 1.29594 37.7776 -5.88894e-05 41.4256 -5.88894e-05C45.0736 -5.88894e-05 48.1816 1.29594 50.7496 3.88794C53.3416 6.47994 54.6376 9.58794 54.6376 13.2119C54.6376 16.8359 53.3416 19.9439 50.7496 22.5359ZM64.3472 18.6119C65.8112 20.1239 67.5752 20.8799 69.6392 20.8799C71.7032 20.8799 73.4552 20.1239 74.8952 18.6119C76.3352 17.0999 77.0552 15.2999 77.0552 13.2119C77.0552 11.1239 76.3352 9.32394 74.8952 7.81194C73.4552 6.29994 71.7032 5.54394 69.6392 5.54394C67.5752 5.54394 65.8112 6.29994 64.3472 7.81194C62.9072 9.32394 62.1872 11.1239 62.1872 13.2119C62.1872 15.2999 62.9072 17.0999 64.3472 18.6119ZM78.9632 22.5359C76.3952 25.1279 73.2872 26.4239 69.6392 26.4239C65.9912 26.4239 62.8712 25.1399 60.2792 22.5719C57.7112 19.9799 56.4272 16.8599 56.4272 13.2119C56.4272 9.56394 57.7112 6.45594 60.2792 3.88794C62.8712 1.29594 65.9912 -5.88894e-05 69.6392 -5.88894e-05C73.2872 -5.88894e-05 76.3952 1.29594 78.9632 3.88794C81.5552 6.47994 82.8512 9.58794 82.8512 13.2119C82.8512 16.8359 81.5552 19.9439 78.9632 22.5359ZM105.219 26.4239C101.571 26.4239 98.4507 25.1399 95.8587 22.5719C93.2907 19.9799 92.0067 16.8599 92.0067 13.2119C92.0067 9.56394 93.2907 6.45594 95.8587 3.88794C98.4507 1.29594 101.571 -5.88894e-05 105.219 -5.88894e-05C107.835 -5.88894e-05 110.199 0.635942 112.311 1.90794C114.423 3.17994 116.043 4.87194 117.171 6.98394L112.131 9.71994C110.595 6.93594 108.291 5.54394 105.219 5.54394C103.155 5.54394 101.391 6.29994 99.9267 7.81194C98.4867 9.32394 97.7667 11.1239 97.7667 13.2119C97.7667 15.2999 98.4867 17.0999 99.9267 18.6119C101.391 20.1239 103.155 20.8799 105.219 20.8799C108.291 20.8799 110.595 19.4879 112.131 16.7039L117.171 19.4399C116.043 21.5519 114.423 23.2439 112.311 24.5159C110.199 25.7879 107.835 26.4239 105.219 26.4239ZM127.141 26.3879C124.549 26.3879 122.425 25.4759 120.769 23.6519C119.113 21.8039 118.285 19.5839 118.285 16.9919C118.285 14.3999 119.113 12.1919 120.769 10.3679C122.425 8.51994 124.549 7.59594 127.141 7.59594C128.845 7.59594 130.261 8.09994 131.389 9.10794V7.99194H136.825V25.9919H131.389V24.8399C130.285 25.8719 128.869 26.3879 127.141 26.3879ZM127.969 21.4559C129.385 21.4559 130.525 20.8799 131.389 19.7279V14.2199C130.501 13.0919 129.361 12.5279 127.969 12.5279C126.769 12.5279 125.785 12.9599 125.017 13.8239C124.273 14.6879 123.901 15.7439 123.901 16.9919C123.901 18.2399 124.273 19.2959 125.017 20.1599C125.785 21.0239 126.769 21.4559 127.969 21.4559ZM152.57 25.9919L148.754 21.0959L144.938 25.9919H138.422L145.334 17.2799L138.494 7.99194H144.902L148.718 13.2479L152.534 7.99194H159.014L152.174 17.2799L159.05 25.9919H152.57ZM167.361 26.3879C164.769 26.3879 162.645 25.4759 160.989 23.6519C159.333 21.8039 158.505 19.5839 158.505 16.9919C158.505 14.3999 159.333 12.1919 160.989 10.3679C162.645 8.51994 164.769 7.59594 167.361 7.59594C169.065 7.59594 170.481 8.09994 171.609 9.10794V7.99194H177.045V25.9919H171.609V24.8399C170.505 25.8719 169.089 26.3879 167.361 26.3879ZM168.189 21.4559C169.605 21.4559 170.745 20.8799 171.609 19.7279V14.2199C170.721 13.0919 169.581 12.5279 168.189 12.5279C166.989 12.5279 166.005 12.9599 165.237 13.8239C164.493 14.6879 164.121 15.7439 164.121 16.9919C164.121 18.2399 164.493 19.2959 165.237 20.1599C166.005 21.0239 166.989 21.4559 168.189 21.4559ZM193.042 26.4239C189.394 26.4239 186.274 25.1399 183.682 22.5719C181.114 19.9799 179.83 16.8599 179.83 13.2119C179.83 9.56394 181.114 6.45594 183.682 3.88794C186.274 1.29594 189.394 -5.88894e-05 193.042 -5.88894e-05C195.658 -5.88894e-05 198.022 0.635942 200.134 1.90794C202.246 3.17994 203.866 4.87194 204.994 6.98394L199.954 9.71994C198.418 6.93594 196.114 5.54394 193.042 5.54394C190.978 5.54394 189.214 6.29994 187.75 7.81194C186.31 9.32394 185.59 11.1239 185.59 13.2119C185.59 15.2999 186.31 17.0999 187.75 18.6119C189.214 20.1239 190.978 20.8799 193.042 20.8799C196.114 20.8799 198.418 19.4879 199.954 16.7039L204.994 19.4399C203.866 21.5519 202.246 23.2439 200.134 24.5159C198.022 25.7879 195.658 26.4239 193.042 26.4239ZM207.152 25.9919V7.99194H224.432V25.9919H218.996V12.7079H212.588V25.9919H207.152ZM236.655 26.3879C233.943 26.3879 231.663 25.5359 229.815 23.8319C227.991 22.1039 227.079 19.8239 227.079 16.9919C227.079 14.3039 227.979 12.0719 229.779 10.2959C231.579 8.49594 233.835 7.59594 236.547 7.59594C239.067 7.59594 241.191 8.36394 242.919 9.89994C244.647 11.4359 245.511 13.5959 245.511 16.3799C245.511 17.0759 245.475 17.7119 245.403 18.2879H232.335C232.479 19.3199 232.971 20.1119 233.811 20.6639C234.651 21.1919 235.623 21.4559 236.727 21.4559C237.711 21.4559 238.587 21.2639 239.355 20.8799C240.123 20.4719 240.699 19.9799 241.083 19.4039L245.115 22.4279C244.251 23.6519 243.087 24.6239 241.623 25.3439C240.159 26.0399 238.503 26.3879 236.655 26.3879ZM232.479 14.7239H240.111C239.895 13.8359 239.439 13.1639 238.743 12.7079C238.047 12.2519 237.267 12.0239 236.403 12.0239C235.491 12.0239 234.663 12.2519 233.919 12.7079C233.175 13.1399 232.695 13.8119 232.479 14.7239ZM268.556 21.2759V30.3839H263.732V25.9919H248.216V7.99194H253.652V21.2759H260.096V7.99194H265.532V21.2759H268.556ZM272.787 25.9919V5.90394H266.271V0.431942H285.135V5.90394H278.547V25.9919H272.787ZM284.815 32.9759V7.99194H290.251V9.10794C291.379 8.09994 292.795 7.59594 294.499 7.59594C297.091 7.59594 299.215 8.51994 300.871 10.3679C302.527 12.1919 303.355 14.3999 303.355 16.9919C303.355 19.5839 302.527 21.8039 300.871 23.6519C299.215 25.4759 297.091 26.3879 294.499 26.3879C292.771 26.3879 291.355 25.8719 290.251 24.8399V32.9759H284.815ZM293.671 21.4559C294.871 21.4559 295.843 21.0239 296.587 20.1599C297.355 19.2959 297.739 18.2399 297.739 16.9919C297.739 15.7439 297.355 14.6879 296.587 13.8239C295.843 12.9599 294.871 12.5279 293.671 12.5279C292.279 12.5279 291.139 13.0919 290.251 14.2199V19.7279C291.115 20.8799 292.255 21.4559 293.671 21.4559ZM313.845 26.3879C311.253 26.3879 309.129 25.4759 307.473 23.6519C305.817 21.8039 304.989 19.5839 304.989 16.9919C304.989 14.3999 305.817 12.1919 307.473 10.3679C309.129 8.51994 311.253 7.59594 313.845 7.59594C315.549 7.59594 316.965 8.09994 318.093 9.10794V7.99194H323.529V25.9919H318.093V24.8399C316.989 25.8719 315.573 26.3879 313.845 26.3879ZM314.673 21.4559C316.089 21.4559 317.229 20.8799 318.093 19.7279V14.2199C317.205 13.0919 316.065 12.5279 314.673 12.5279C313.473 12.5279 312.489 12.9599 311.721 13.8239C310.977 14.6879 310.605 15.7439 310.605 16.9919C310.605 18.2399 310.977 19.2959 311.721 20.1599C312.489 21.0239 313.473 21.4559 314.673 21.4559ZM327.285 25.9919V7.99194H332.721V14.6159H339.489V7.99194H344.925V25.9919H339.489V19.3319H332.721V25.9919H327.285ZM357.175 26.3879C354.487 26.3879 352.219 25.4999 350.371 23.7239C348.523 21.9479 347.599 19.7039 347.599 16.9919C347.599 14.2799 348.523 12.0359 350.371 10.2599C352.219 8.48394 354.487 7.59594 357.175 7.59594C359.023 7.59594 360.727 8.07594 362.287 9.03594C363.847 9.99594 365.011 11.2679 365.779 12.8519L361.027 15.3719C360.235 13.5719 358.951 12.6719 357.175 12.6719C356.023 12.6719 355.051 13.0799 354.259 13.8959C353.467 14.7119 353.071 15.7439 353.071 16.9919C353.071 18.2399 353.467 19.2719 354.259 20.0879C355.051 20.9039 356.023 21.3119 357.175 21.3119C358.951 21.3119 360.235 20.4119 361.027 18.6119L365.779 21.1319C365.011 22.7159 363.847 23.9879 362.287 24.9479C360.727 25.9079 359.023 26.3879 357.175 26.3879Z" fill="#1E1E1E"/>
</svg>
